<svg width="540" height="282" viewBox="0 0 540 282" fill="none" xmlns="http://www.w3.org/2000/svg">
<mask id="mask0_106_2" style="mask-type:alpha" maskUnits="userSpaceOnUse" x="0" y="0" width="540" height="282">
<rect width="540" height="282" fill="#C4C4C4"/>
</mask>
<g mask="url(#mask0_106_2)">
<mask id="mask1_106_2" style="mask-type:alpha" maskUnits="userSpaceOnUse" x="175" y="-4" width="392" height="287">
<path d="M567 -4H175V282.288H567V-4Z" fill="white"/>
</mask>
<g mask="url(#mask1_106_2)">
<path d="M316.067 237.599L199.86 353.794L316.067 469.989L432.274 353.794L316.067 237.599Z" fill="#FF8C1C"/>
<mask id="mask2_106_2" style="mask-type:alpha" maskUnits="userSpaceOnUse" x="375" y="194" width="186" height="186">
<path d="M468 194L375 287L468 380L561 287L468 194Z" fill="#C4C4C4"/>
</mask>
<g mask="url(#mask2_106_2)">
<path d="M585.476 161.452H344.714V276.13H585.476V161.452Z" fill="#ECF4FA"/>
<path d="M464.507 265.084H424.979V271.801H464.507V265.084Z" fill="#493E60"/>
<path d="M463.701 250.285C463.209 256.814 458.594 262.7 452.475 264.595C451.07 265.03 449.613 265.239 448.158 265.239C445.166 265.239 442.175 264.363 439.666 262.781C437.927 261.686 436.421 260.255 435.307 258.541L438.999 256.138C439.838 257.426 440.991 258.487 442.322 259.274C444.928 260.816 448.218 261.305 451.17 260.391C455.536 259.035 458.959 254.65 459.312 249.953C459.623 245.805 457.658 241.532 454.328 238.857C453.911 238.519 453.474 238.211 453.015 237.93L455.318 234.178C457.485 235.51 459.324 237.324 460.725 239.416C462.865 242.627 463.985 246.493 463.701 250.285Z" fill="#493E60"/>
<path d="M443.804 252.534H426.739V258.698H443.804V252.534Z" fill="#6F5F87"/>
<path d="M464.569 227.369L458.34 221.141L440.278 239.202L446.506 245.43L464.569 227.369Z" fill="#826EA0"/>
<path d="M466.203 224.019L461.688 219.504L459.197 221.995L463.712 226.509L466.203 224.019Z" fill="#493E60"/>
<path d="M447.283 246.207L439.499 238.423L437.708 240.214L445.493 247.998L447.283 246.207Z" fill="#493E60"/>
<path d="M445.468 251.755H425.073V252.534H445.468V251.755Z" fill="#93B6F9"/>
<path d="M447.602 242.606C452.266 237.88 456.933 233.152 461.597 228.425C462.201 227.812 461.241 226.886 460.634 227.499C455.97 232.225 451.303 236.953 446.639 241.68C446.033 242.292 446.996 243.219 447.602 242.606Z" fill="#9F89C9"/>
<path d="M439.391 250.883H431.155C430.914 250.883 430.717 251.079 430.717 251.321C430.717 251.563 430.914 251.759 431.155 251.759H439.391C439.632 251.759 439.829 251.563 439.829 251.321C439.829 251.079 439.632 250.883 439.391 250.883Z" fill="#F96969"/>
<path d="M475.745 222.555C478.19 223.258 480.524 224.36 482.628 225.79C483.168 226.14 483.688 226.524 484.188 226.922L484.195 226.932C485.149 227.689 486.045 228.522 486.875 229.409C488.137 224.758 490.181 220.206 492.723 216.125C486.473 215.401 480.473 212.153 476.672 207.148C477.128 209.76 477.303 212.328 477.388 214.975C477.4 215.549 477.388 216.11 477.333 216.656C477.152 218.64 476.579 220.539 475.793 222.419C475.781 222.464 475.757 222.513 475.745 222.555Z" fill="#FFA59D"/>
<path d="M475.745 222.555C478.19 223.257 480.524 224.36 482.628 225.79C484.077 217.375 479.624 212.783 479.624 212.783L477.333 216.66C477.152 218.642 476.579 220.541 475.793 222.421C475.781 222.463 475.757 222.512 475.745 222.555Z" fill="#F17785"/>
<path d="M478.429 223.502C478.419 223.53 478.41 223.557 478.402 223.584C477.783 225.307 476.605 227.164 474.779 227.281C473.13 227.387 471.799 226.017 470.76 224.728C470.413 224.3 470.069 223.868 469.738 223.433C469.547 223.191 469.363 222.953 469.182 222.705H469.179C466.447 219.12 463.984 215.326 461.828 211.359C461.641 211.021 461.46 210.683 461.276 210.339C464.772 206.669 467.748 203.813 471.887 200.879C474.407 202.863 476.819 205.935 478.331 209.074C478.802 210.05 479.186 211.034 479.463 211.997C479.545 212.28 479.615 212.56 479.678 212.841C479.811 213.43 479.901 214.009 479.953 214.58C480.245 217.592 479.53 220.439 478.429 223.502Z" fill="#FFA59D"/>
<path d="M473.898 209.25C473.644 208.579 474.14 207.782 474.824 207.574C475.51 207.363 476.277 207.653 476.787 208.153C477.297 208.654 477.586 209.34 477.783 210.028C477.946 210.599 478.051 211.203 477.94 211.785C477.825 212.368 477.457 212.925 476.902 213.137C479.096 214.942 482.616 215.347 485.061 213.898C482.405 212.597 481.04 209.798 480.008 207.025C478.976 204.251 478.148 201.283 476.158 199.096C475.389 198.247 474.408 197.52 473.273 197.368C472.138 197.214 470.858 197.788 470.477 198.865C469.445 197.544 467.335 197.326 465.717 197.764C464.099 198.202 462.722 199.246 461.394 200.266C458.81 202.25 456.229 204.23 453.645 206.213C454.533 207.67 455.284 208.896 456.57 210.019C457.856 211.142 459.61 211.866 461.282 211.519C462.737 211.217 463.912 210.176 465.007 209.174C466.412 207.894 467.812 206.615 469.216 205.335C469.901 207.236 471.92 208.797 473.898 209.25Z" fill="#86472F"/>
<path d="M493.136 238.628C501.088 248.903 506.235 261.327 507.881 274.213C509.526 287.099 507.666 300.416 502.555 312.36C508.49 315.04 515.521 315.611 521.628 313.353C527.1 293.953 524.079 272.42 514.542 254.662C512.282 250.452 509.603 246.41 506.111 243.144C502.621 239.884 497.87 239.286 493.136 238.628Z" fill="#E5B7BC"/>
<path d="M557.022 306C543.772 313.549 528.416 318.077 513.172 317.639C518.08 305.637 519.303 292.574 516.76 279.858C515.366 272.86 512.809 266.096 509.271 259.893C508.982 259.386 508.682 258.882 508.38 258.384C508.251 258.176 508.121 257.965 507.994 257.756C507.556 257.056 507.106 256.362 506.645 255.676C506.549 255.528 506.449 255.384 506.343 255.236C506.28 255.142 506.219 255.049 506.153 254.955C505.797 254.433 505.432 253.923 505.06 253.419C503.967 251.936 502.82 250.496 501.606 249.112C501.552 249.048 501.501 248.991 501.446 248.93C501.144 248.583 500.84 248.245 500.529 247.907C499.94 247.27 499.342 246.646 498.738 246.027C492.888 240.143 485.535 234.668 483.992 226.516C483.974 226.41 483.956 226.301 483.938 226.189C483.195 221.232 486.492 216.551 491.367 215.386C499.357 213.478 508.254 215.06 515.595 219.002C525.276 224.2 532.591 232.953 538.399 242.281C550.251 261.3 556.762 283.597 557.022 306Z" fill="#FEDADC"/>
<path d="M512.952 271.801H297.732V284.022H512.952V271.801Z" fill="#3E3E63"/>
<path d="M512.952 271.801H365.838V284.022H512.952V271.801Z" fill="#5E5E99"/>
<path d="M456.935 267.826C456.935 267.826 449.4 265.348 442.961 270.467C442.409 270.907 442.72 271.797 443.423 271.797H458.511L456.935 267.826Z" fill="#FFA59D"/>
<path d="M506.343 255.233C506.28 255.139 506.22 255.045 506.153 254.952C505.797 254.429 505.432 253.92 505.06 253.415C503.968 251.933 502.82 250.493 501.607 249.107C501.552 249.044 501.502 248.987 501.447 248.927L506.111 243.149C506.111 243.147 507.128 247.65 506.343 255.233Z" fill="#E5B7BC"/>
<path d="M484.294 224.1C484.294 224.1 489.095 246.059 484.294 260.454L455.84 267.225C455.84 267.225 455.006 269.347 455.84 271.797H492.85C492.85 271.797 505.969 256.828 506.504 239.241C506.5 239.241 501.193 224.465 484.294 224.1Z" fill="#FEDADC"/>
<path d="M487.57 259.075C484.807 259.64 482.085 260.334 479.388 261.158C478.773 261.345 479.035 262.314 479.654 262.123C482.35 261.299 485.076 260.605 487.835 260.04C488.469 259.911 488.2 258.945 487.57 259.075Z" fill="#E5B7BC"/>
<path d="M537.76 274.421C533.368 273.141 529.036 271.686 524.761 270.056C523.786 269.685 523.364 271.248 524.329 271.616C528.604 273.246 532.936 274.698 537.328 275.981C538.33 276.274 538.759 274.711 537.76 274.421Z" fill="#E5B7BC"/>
<path d="M464.929 213.91C466.103 213.466 467.305 213.046 468.572 213.309C469.204 213.439 468.895 214.393 468.268 214.263C467.292 214.061 466.272 214.465 465.376 214.807C464.781 215.03 464.325 214.14 464.929 213.91Z" fill="#86472F"/>
<path d="M466.613 216.297C466.683 216.083 466.994 215.989 467.184 216.086C467.588 216.291 467.866 216.716 467.924 217.164C467.951 217.393 467.755 217.607 467.531 217.625C467.428 217.634 467.332 217.604 467.257 217.547C466.822 217.344 466.465 216.753 466.613 216.297Z" fill="#343256"/>
<path d="M466.193 218.553L467.642 223.379L471.374 221.743L466.193 218.553Z" fill="#FFA59D"/>
<path d="M470.414 222.163L469.738 223.433C469.548 223.191 469.364 222.953 469.183 222.705L470.414 222.163Z" fill="#F17785"/>
<path opacity="0.5" d="M396.375 268.36L387.832 256.063C387.105 255.015 386.715 253.771 386.715 252.497V246.056H386.879C387.244 246.056 387.54 245.76 387.54 245.395C387.54 245.03 387.244 244.734 386.879 244.734H386.715H383.416H383.253C382.888 244.734 382.592 245.03 382.592 245.395C382.592 245.76 382.888 246.056 383.253 246.056H383.416V252.497C383.416 253.771 383.026 255.015 382.299 256.063L373.756 268.36C372.748 269.811 373.786 271.801 375.555 271.801H394.576C396.346 271.801 397.387 269.811 396.375 268.36Z" fill="#BBD5FF"/>
<path d="M395.648 270.167C395.437 270.575 395.032 270.817 394.576 270.817H375.558C375.096 270.817 374.698 270.575 374.486 270.167C374.275 269.763 374.305 269.298 374.565 268.918L379.618 261.646H390.522L395.569 268.918C395.832 269.298 395.859 269.766 395.648 270.167Z" fill="#FFCE45"/>
<path d="M386.556 259.853C388.276 262.471 389.997 265.09 391.718 267.707C392.237 268.498 393.514 267.759 392.992 266.962C391.271 264.345 389.55 261.725 387.83 259.107C387.31 258.32 386.033 259.057 386.556 259.853Z" fill="white"/>
<path opacity="0.5" d="M419.481 267.228H402.344C401.985 267.228 401.695 267.518 401.695 267.877V271.152C401.695 271.511 401.985 271.801 402.344 271.801H419.481C419.84 271.801 420.13 271.511 420.13 271.152V267.877C420.13 267.518 419.84 267.228 419.481 267.228Z" fill="#BBD5FF"/>
<path d="M417.469 268.577C417.469 269.121 417.469 270.153 417.469 270.696C417.469 271.381 418.534 271.381 418.534 270.696C418.534 270.153 418.534 269.121 418.534 268.577C418.534 267.892 417.469 267.892 417.469 268.577Z" fill="white"/>
<path d="M416.454 270.684H405.372C406.836 269.362 408.78 268.556 410.911 268.556C413.045 268.556 414.99 269.362 416.454 270.684Z" fill="#F96969"/>
</g>
<mask id="mask3_106_2" style="mask-type:alpha" maskUnits="userSpaceOnUse" x="277" y="96" width="186" height="186">
<path d="M369.999 95.9999L277 188.999L370.001 282L463 189.001L369.999 95.9999Z" fill="#C4C4C4"/>
</mask>
<g mask="url(#mask3_106_2)">
<path opacity="0.3" d="M570.65 286L401.346 285.921H399.269L384.453 285.915H382.541L368.404 285.91L365.985 285.909L346.285 285.899L342.813 285.897L326.745 285.89H324.346L322.376 285.889L294.684 285.875L289.849 285.874L267.239 285.862L263.897 285.861L214.789 285.838C214.789 285.838 175.466 232.203 190.374 176.987C193.837 164.165 200.223 151.258 210.705 138.919C213.78 135.299 217.209 131.726 221.019 128.22C289.276 65.4053 355.487 91.8296 364.947 91.8296C410.55 91.8296 399.533 63.0284 450.03 58.6223C556.83 49.3028 540.945 147.738 540.943 147.743C540.943 147.746 539.365 153.156 538.879 155.17C538.171 158.085 537.641 160.834 537.272 163.429C537.171 164.133 537.083 164.826 537.007 165.507C536.459 170.363 536.491 174.671 536.989 178.545C538.713 191.999 546.021 200.23 553.998 207.954C556.43 210.31 558.924 212.615 561.339 215.009C561.636 215.299 561.932 215.596 562.223 215.892C562.727 216.4 563.228 216.914 563.721 217.433C565.754 219.562 567.694 221.791 569.451 224.205C569.836 224.727 570.209 225.26 570.571 225.801C571 226.438 571.415 227.09 571.814 227.756C573.087 229.869 574.212 232.132 575.143 234.589C579.463 246 579.568 261.6 570.65 286Z" fill="#9DB0F4"/>
<path d="M557.136 247.682H280.093C279.908 247.682 279.757 247.531 279.757 247.347V247.178C279.757 246.992 279.909 246.842 280.093 246.842H557.136C557.322 246.842 557.472 246.993 557.472 247.178V247.347C557.474 247.531 557.322 247.682 557.136 247.682Z" fill="#2E3552"/>
<g opacity="0.3">
<path opacity="0.3" d="M421.104 180.302L425.534 177.574L427.802 180.545L430.935 180.518L430.8 183.218L427.154 183.299L426.101 187.188L429.099 190.267L428.343 192.427L424.723 190.321L421.86 190.969L419.429 186.594L422.076 187.134L423.905 181.679L421.104 180.302Z" fill="#9DB0F4"/>
<g opacity="0.3">
<path opacity="0.3" d="M429.998 172.337L429.577 171.286L424.943 177.28L424.725 178.073L423.756 181.606L422.976 184.454V184.454L421.411 190.159L421.236 190.797L421.208 190.9L421.954 204.223L423.005 202.972C423.138 202.812 426.295 199.026 428.765 193.355C432.056 185.798 432.483 178.53 429.998 172.337ZM428.701 189.858C428.436 190.645 428.148 191.406 427.845 192.138C426.251 196.004 424.253 199.084 423.057 200.756L422.514 191.039L422.576 190.807L426.028 178.222L426.124 177.87L429.192 173.901C429.94 176.119 430.27 178.347 430.293 180.524C430.303 181.438 430.259 182.342 430.17 183.233C429.939 185.555 429.399 187.791 428.701 189.858Z" fill="#9DB0F4"/>
</g>
<path opacity="0.3" d="M375.191 165.098L373.137 170.391L419.43 186.594L421.105 180.302L375.191 165.098Z" fill="#9DB0F4"/>
<path opacity="0.3" d="M393.016 177.574H385.562V182.38H393.016V177.574Z" fill="#9DB0F4"/>
<path opacity="0.3" d="M390.18 174.604H387.749V177.601H390.18V174.604Z" fill="#9DB0F4"/>
<g opacity="0.3">
<path opacity="0.3" d="M388.532 182.734L387.75 186.936L376.503 247.41H374.824L375.282 244.944L386.917 182.381L386.969 182.109L387.65 182.381L387.75 182.422L388.532 182.734Z" fill="#9DB0F4"/>
</g>
<g opacity="0.3">
<path opacity="0.3" d="M405.664 247.424L403.972 247.423L390.696 182.381L390.297 180.426L391.851 179.745L392.389 182.381L405.664 247.424Z" fill="#9DB0F4"/>
</g>
<path opacity="0.3" d="M390.18 180.087V247.416L387.749 247.415V180.087H390.18Z" fill="#9DB0F4"/>
</g>
<g opacity="0.3">
<g opacity="0.3">
<path opacity="0.3" d="M385.793 131.697L389.046 125.226L393.907 127.086L397.599 124.762L399.415 128.061L395.154 130.824L396.751 136.202L402.556 137.657L403.241 140.77L397.41 140.921L394.493 143.783L388.412 140.378L391.944 139.081L390.12 131.28L385.793 131.697Z" fill="#9DB0F4"/>
<g opacity="0.3">
<path opacity="0.3" d="M404.42 141.56C403.525 135.31 401.665 129.799 398.93 125.185C396.692 121.412 393.868 118.239 390.505 115.756L389.236 114.818L388.253 124.158L388.131 125.309L388.454 126.408V126.409L389.892 131.303L391.053 135.26L391.053 135.263L393.369 143.152L393.629 144.037L393.671 144.179L404.301 159.42L404.633 157.166C404.673 156.882 405.643 150.086 404.42 141.56ZM403.072 154.504L395.319 143.386L395.226 143.066V143.065L390.107 125.63L389.964 125.142L390.05 124.319L390.696 118.194C393.117 120.201 395.082 122.504 396.672 124.965C396.73 125.056 396.788 125.146 396.845 125.237C397.525 126.311 398.135 127.415 398.682 128.537C400.106 131.46 401.101 134.501 401.786 137.462C402.046 138.587 402.263 139.7 402.441 140.789C403.381 146.538 403.266 151.648 403.072 154.504Z" fill="#9DB0F4"/>
</g>
<path opacity="0.3" d="M320.269 147.265L321.709 155.039L388.412 140.378L385.794 131.697L320.269 147.265Z" fill="#9DB0F4"/>
</g>
<path opacity="0.3" d="M358.007 152.155H347.627V158.849H358.007V152.155Z" fill="#9DB0F4"/>
<path opacity="0.3" d="M354.061 148.018H350.676V152.192H354.061V148.018Z" fill="#9DB0F4"/>
<g opacity="0.3">
<path opacity="0.3" d="M351.765 159.211L350.676 164.89L334.851 247.391L332.51 247.391L349.496 158.849L349.588 158.369L350.676 158.789L350.827 158.849L351.765 159.211Z" fill="#9DB0F4"/>
</g>
<g opacity="0.3">
<path opacity="0.3" d="M375.801 247.41H374.824L373.445 247.41L354.801 158.848L354.222 156.098L356.384 155.177L357.157 158.848L375.282 244.944L375.801 247.41Z" fill="#9DB0F4"/>
</g>
<path opacity="0.3" d="M354.06 155.638V247.4L350.675 247.399V155.638H354.06Z" fill="#9DB0F4"/>
</g>
<path d="M408.113 209.01V235.662H331.183C326.662 235.662 322.27 234.775 318.128 233.023C314.133 231.332 310.55 228.917 307.473 225.843C304.399 222.768 301.984 219.184 300.293 215.189C298.541 211.049 297.654 206.656 297.654 202.137V174.811C297.654 172.837 296.047 171.232 294.071 171.232H281.045C283.47 162.263 287.939 153.234 295.276 144.603C298.928 144.745 302.479 145.536 305.846 146.961C309.448 148.484 312.679 150.663 315.453 153.435C318.226 156.206 320.404 159.439 321.926 163.039C323.508 166.774 324.309 170.735 324.309 174.811V202.137C324.309 205.926 327.393 209.009 331.185 209.009H408.113V209.01Z" fill="#F99746"/>
<path d="M410.282 206.98H405.95V236.934H410.282V206.98Z" fill="#E27C30"/>
<path d="M410.284 214.964C410.284 214.964 419.586 216.824 423.935 221.957C428.283 227.089 426.308 229.584 423.191 228.338C420.073 227.091 423.535 229.634 423.935 232.103C424.334 234.572 422.504 237.898 418.95 236.339C415.397 234.78 412.032 231.039 410.284 230.935V214.964Z" fill="#2A4E96"/>
<path d="M410.284 210.151C410.284 210.151 418.929 210.879 419.553 213.892C420.177 216.906 410.284 212.839 410.284 212.839V210.151Z" fill="#2A4E96"/>
<path d="M426.451 230.254C426.451 230.254 430.918 233.736 429.029 235.662C427.139 237.587 426.451 230.254 426.451 230.254Z" fill="#2A4E96"/>
<path d="M410.284 232.104C410.284 232.104 414.841 234.157 414.287 236.374C413.733 238.591 410.284 234.239 410.284 234.239V232.104Z" fill="#2A4E96"/>
<path d="M325.3 191.308H296.495V193.075H325.3V191.308Z" fill="#E27C30"/>
<path d="M325.3 195.205H296.495V196.973H325.3V195.205Z" fill="#E27C30"/>
<path d="M302.019 188.164H301.058L300.578 188.995L301.058 189.827H302.019L302.499 188.995L302.019 188.164Z" fill="#E27C30"/>
<path d="M307.94 188.164H306.98L306.5 188.995L306.98 189.827H307.94L308.421 188.995L307.94 188.164Z" fill="#E27C30"/>
<path d="M313.865 188.164H312.905L312.424 188.995L312.905 189.827H313.865L314.345 188.995L313.865 188.164Z" fill="#E27C30"/>
<path d="M319.79 188.164H318.83L318.35 188.995L318.83 189.827H319.79L320.27 188.995L319.79 188.164Z" fill="#E27C30"/>
<path d="M302.019 197.829H301.058L300.578 198.661L301.058 199.491H302.019L302.499 198.661L302.019 197.829Z" fill="#E27C30"/>
<path d="M307.94 197.828H306.98L306.5 198.66L306.98 199.49H307.94L308.421 198.66L307.94 197.828Z" fill="#E27C30"/>
<path d="M313.865 197.828H312.905L312.424 198.66L312.905 199.49H313.865L314.345 198.66L313.865 197.828Z" fill="#E27C30"/>
<path d="M319.79 197.828H318.83L318.35 198.66L318.83 199.49H319.79L320.27 198.66L319.79 197.828Z" fill="#E27C30"/>
<path d="M347.133 235.662V209.038H345.365V235.662H347.133Z" fill="#E27C30"/>
<path d="M343.235 235.662V209.038H341.467V235.662H343.235Z" fill="#E27C30"/>
<path d="M350.277 214.14V213.253L349.446 212.81L348.614 213.253V214.14L349.446 214.585L350.277 214.14Z" fill="#E27C30"/>
<path d="M350.276 219.616V218.729L349.445 218.285L348.613 218.729V219.616L349.445 220.06L350.276 219.616Z" fill="#E27C30"/>
<path d="M350.276 225.092V224.204L349.445 223.76L348.613 224.204V225.092L349.445 225.536L350.276 225.092Z" fill="#E27C30"/>
<path d="M350.276 230.567V229.679L349.445 229.235L348.613 229.679V230.567L349.445 231.011L350.276 230.567Z" fill="#E27C30"/>
<path d="M340.611 214.139V213.252L339.78 212.809L338.948 213.252V214.139L339.78 214.584L340.611 214.139Z" fill="#E27C30"/>
<path d="M340.611 219.614V218.727L339.78 218.283L338.948 218.727V219.614L339.78 220.059L340.611 219.614Z" fill="#E27C30"/>
<path d="M340.611 225.091V224.203L339.78 223.759L338.948 224.203V225.091L339.78 225.535L340.611 225.091Z" fill="#E27C30"/>
<path d="M340.611 230.567V229.678L339.78 229.235L338.948 229.678V230.567L339.78 231.01L340.611 230.567Z" fill="#E27C30"/>
<path d="M402.725 214.018V213.058L401.894 212.578L401.062 213.058V214.018L401.894 214.498L402.725 214.018Z" fill="#E27C30"/>
<path d="M402.725 219.942V218.981L401.894 218.502L401.062 218.981V219.942L401.894 220.422L402.725 219.942Z" fill="#E27C30"/>
<path d="M402.725 225.865V224.906L401.894 224.426L401.062 224.906V225.865L401.894 226.345L402.725 225.865Z" fill="#E27C30"/>
<path d="M402.725 231.789V230.83L401.894 230.349L401.062 230.83V231.789L401.894 232.268L402.725 231.789Z" fill="#E27C30"/>
<path d="M365.252 171.573C365.252 171.573 367.688 187.829 368.726 189.326C369.765 190.822 374.962 196.746 374.962 196.746L372.261 197.563C372.261 197.563 364.434 192.64 363.618 190.121C362.803 187.602 360.589 172.622 360.589 172.622L365.252 171.573Z" fill="#FFB27D"/>
<path d="M348.793 157.387C348.793 157.387 349.187 158.919 346.658 159.508C344.129 160.096 344.579 160.893 344.545 161.898C344.51 162.902 338.696 163.907 342.66 166.956C346.623 170.004 352.246 165.05 352.246 165.05L349.961 157.387H348.793Z" fill="#2C3A64"/>
<path d="M343.446 151.358C343.337 152.591 344.471 152.816 344.279 153.8C343.831 156.084 345.681 156.879 347.5 156.71C348.57 156.611 349.204 158.037 349.204 158.037L355.715 146.789C355.715 146.789 343.487 150.887 343.446 151.358Z" fill="#2C3A64"/>
<path d="M398.078 246.886H387.27C387.27 246.886 387.011 245.239 387.575 243.989C388.117 242.79 388.462 242.462 387.874 241.075C388.561 241.782 390.568 242.293 392.13 242.083C392.321 242.393 393.365 244.054 394.005 244.514C394.712 245.021 397.861 244.841 398.078 246.886Z" fill="#233862"/>
<path d="M379.049 246.793H368.241C368.241 246.793 367.981 245.145 368.546 243.896C369.088 242.697 370.141 241.896 370.45 240.512C371.137 241.219 371.537 242.2 373.1 241.99C373.291 242.3 374.335 243.961 374.976 244.421C375.682 244.928 378.831 244.746 379.049 246.793Z" fill="#233862"/>
<path d="M378.785 233.341C378.613 233.794 378.445 234.237 378.278 234.668C376.505 239.293 375.17 242.579 375.17 242.579C375.17 242.579 373.613 243.195 371.349 242.296C369.77 241.669 369.578 240.083 369.578 240.083C369.578 240.083 369.614 237.437 369.906 232.817C369.934 232.364 369.965 231.891 369.999 231.401C370.228 228.071 370.579 223.897 371.117 219.077C372.108 210.196 374.244 208.711 373.663 208.09C371.369 205.636 351.928 211.989 344.678 207.185C339.266 203.601 341.691 196.043 341.691 196.043C341.691 196.043 343.932 191.136 353.913 193.947C370.26 198.549 384.361 197.785 386.908 205.574C387.868 208.506 382.578 223.367 378.785 233.341Z" fill="#233862"/>
<path d="M392.646 242.324C392.646 242.324 392.101 242.764 390.915 242.874C385.218 243.402 383.486 242.26 383.486 242.26C383.486 242.26 382.078 238.896 380.409 234.681C380.23 234.227 380.046 233.761 379.862 233.289C377.754 227.906 375.44 221.645 375.071 219.214C374.371 214.599 372.617 212.435 370.646 212.296C368.676 212.158 343.72 213.339 341.41 205.93C339.605 200.142 341.769 194.544 341.769 194.544C341.769 194.544 342.722 196.488 349.345 195.876C356.523 195.212 376.111 194.875 380.347 197.785C383.872 200.206 388.253 219.723 390.722 232.103C390.813 232.559 390.901 233.006 390.988 233.442C392.012 238.667 392.646 242.324 392.646 242.324Z" fill="#2A4E96"/>
<path d="M334.738 206.324C334.738 206.324 331.441 207.234 330.74 207.918C330.039 208.603 329.084 210.592 329.764 210.883C330.443 211.174 331.376 210.075 332.611 209.598C333.845 209.121 335.349 209.477 335.349 209.477C336.108 208.9 336.8 207.619 336.8 207.619L334.738 206.324Z" fill="#FFB27D"/>
<path d="M366.669 173.364C365.427 168.191 361.903 163.996 359.78 163.825C359.195 163.777 358.506 163.59 357.721 163.488C356.055 163.274 353.992 163.148 351.842 163.352C350.482 163.482 349.206 163.711 348.054 163.995C347.469 164.141 346.913 164.299 346.395 164.468C344.128 165.202 342.912 166.073 342.486 166.686C340.301 169.823 338.796 174.848 338.796 174.848C338.796 174.848 339.346 176.887 343.681 178.455L341.394 201.889C341.394 201.889 354.484 204.265 362.698 199.102C362.698 199.102 362.072 186.24 362.698 183.803C363.324 181.365 363.816 175.862 363.816 175.862C366.397 175.117 366.669 173.364 366.669 173.364Z" fill="#FF9E55"/>
<path d="M357.06 168.817C353.123 170.039 348.32 163.94 348.723 163.84C349.34 163.143 349.561 160.651 349.109 157.074L349.428 157.097L354.792 157.493C354.792 157.493 354.876 159.157 355.06 160.709C355.182 161.728 355.35 162.702 355.568 163.126C355.632 163.251 356.705 163.373 356.709 163.376C356.799 163.473 358.781 168.283 357.06 168.817Z" fill="#FFB27D"/>
<path d="M354.795 157.495C354.795 157.495 354.877 159.158 355.063 160.71C352.123 160.986 350.247 158.502 349.43 157.098L354.795 157.495Z" fill="#ED985F"/>
<path d="M355.951 158.845C355.951 158.845 349.032 159.806 348.5 155.489C347.967 151.17 346.715 148.387 351.111 147.59C355.506 146.794 356.57 148.335 357.098 149.733C357.626 151.13 357.737 158.483 355.951 158.845Z" fill="#FFB27D"/>
<path d="M356.596 147.357C355.365 146.19 354.59 146.573 354.184 147.02C350.14 145.4 348.074 148.778 348.074 148.778C347.989 151.933 345.972 153.981 345.972 153.981C345.972 153.981 347.331 154.607 350.153 153.503C351.015 153.164 351.732 152.435 352.314 151.586C351.376 153.706 349.946 155.327 349.946 155.327C353.23 153.293 354.035 148.282 354.112 147.753C354.581 148.081 356.021 148.234 356.374 149.012C356.854 150.07 357.069 150.051 357.433 152.728C357.431 152.728 358.441 149.109 356.596 147.357Z" fill="#2C3A64"/>
<path d="M353.916 156.544C353.986 156.544 354.645 157.132 355.514 156.967C356.383 156.802 356.376 156.121 356.376 156.121C356.376 156.121 355.782 156.026 355.26 156.121C354.738 156.215 353.916 156.544 353.916 156.544Z" fill="white"/>
<path d="M342.322 188.038C342.322 188.038 349.031 184.231 351.157 175.848C351.157 175.848 359.688 175.92 363.589 175.229C363.589 175.229 364.604 177.669 364.648 181.002C364.726 186.902 364.718 195.606 367.676 199.231C372.852 205.571 340.766 202.978 340.766 202.978L342.322 188.038Z" fill="#2A4E96"/>
<path d="M341.15 172.914C341.15 172.914 337.474 187.71 336.348 194.026C335.222 200.34 334.737 206.324 334.737 206.324L336.8 207.619C336.353 208.867 340.689 197.648 343.299 189.057C344.227 186 345.862 178.11 345.862 178.11L341.15 172.914Z" fill="#FFB27D"/>
<path d="M338.796 174.849C338.796 174.849 340.043 178.387 346.626 179.633C353.209 180.88 342.711 170.558 342.711 170.558L338.796 174.849Z" fill="#FF9E55"/>
<path d="M353.075 177.632L351.416 177.751C351.032 172.472 347.498 166.285 346.394 164.468C346.912 164.299 347.466 164.141 348.053 163.995C349.422 166.294 352.684 172.267 353.075 177.632Z" fill="#2A4E96"/>
<path d="M364.268 177.587L362.008 176.16C361.648 171.219 358.883 165.644 357.72 163.488C358.506 163.59 359.203 163.711 359.778 163.825C361.161 166.546 363.935 173.009 364.268 177.587Z" fill="#2A4E96"/>
<path d="M357.714 149.186C357.714 149.186 354.858 150.179 353.857 150.251C353.559 150.273 349.13 150.577 349.13 150.577L342.659 151.718C342.659 151.718 341.396 146.915 344.561 143.898L344.561 143.897C344.641 143.821 344.723 143.746 344.808 143.673C345.663 142.936 346.809 142.322 348.337 141.939C356.073 139.997 357.681 148.905 357.714 149.186Z" fill="#FF9E55"/>
<path d="M353.942 150.116L352.719 150.279C351.763 149.016 348.225 144.632 344.497 143.983C344.519 143.949 344.541 143.922 344.559 143.899L344.561 143.898C344.624 143.82 344.676 143.78 344.769 143.664C344.783 143.667 344.794 143.671 344.808 143.674C349.578 144.816 353.135 148.993 353.942 150.116Z" fill="#E27830"/>
<path d="M349.131 150.578C349.131 150.578 348.299 151.519 348.081 152.424C347.864 153.33 343.662 153.873 343.372 153.402C343.082 152.931 342.662 151.718 342.662 151.718L349.131 150.578Z" fill="#FF9E55"/>
<path d="M349.13 150.577C349.13 150.577 356.87 150.721 360.409 148.859C360.679 148.717 360.633 148.318 360.337 148.245C359.806 148.115 358.9 147.97 357.407 147.916C357.407 147.915 354.635 150.215 349.13 150.577Z" fill="#E27830"/>
<path d="M390.985 233.443C387.5 234.505 383.986 234.71 381.79 234.71C381.239 234.71 380.771 234.697 380.408 234.683C380.229 234.228 380.045 233.762 379.86 233.291C380.875 233.358 385.922 233.595 390.72 232.105C390.811 232.56 390.9 233.007 390.985 233.443Z" fill="white"/>
<g opacity="0.5">
<path opacity="0.5" d="M378.786 233.341C378.613 233.794 378.446 234.236 378.278 234.668C374.922 234.414 371.849 233.509 369.907 232.816C369.935 232.364 369.966 231.89 370.001 231.399C371.904 232.099 375.237 233.131 378.786 233.341Z" fill="white"/>
</g>
<path d="M336.8 207.618C336.8 207.618 336.438 209.077 335.971 209.459C335.503 209.84 335.122 210.723 334.828 210.758C334.533 210.792 334.382 210.378 334.62 209.822C334.86 209.267 335.33 208.472 335.33 208.472L336.8 207.618Z" fill="#FFB27D"/>
<path opacity="0.95" d="M462.194 144.97C462.194 144.97 463.95 141.642 468.148 142.012C468.148 142.012 474.243 136.464 480.744 141.273C480.744 141.273 487.654 140.081 492.771 142.304C496.182 143.786 497.309 145.34 497.309 145.34L462.194 144.97Z" fill="#F8FCFF"/>
<path opacity="0.95" d="M444.543 164.264C444.543 164.264 445.71 160.935 448.505 161.305C448.505 161.305 452.56 155.757 456.885 160.566C456.885 160.566 461.482 159.375 464.887 161.597C467.156 163.079 467.906 164.633 467.906 164.633L444.543 164.264Z" fill="#F8FCFF"/>
<path opacity="0.95" d="M421.963 150.739C421.963 150.739 423.316 148.122 426.554 148.413C426.554 148.413 431.255 144.052 436.268 147.831C436.268 147.831 441.596 146.894 445.543 148.642C448.174 149.807 449.043 151.03 449.043 151.03L421.963 150.739Z" fill="#F8FCFF"/>
<path opacity="0.95" d="M388.709 156.385C388.709 156.385 389.971 153.345 392.987 153.683C392.987 153.683 397.365 148.615 402.033 153.007C402.033 153.007 406.997 151.919 410.672 153.95C413.123 155.303 413.932 156.724 413.932 156.724L388.709 156.385Z" fill="#F8FCFF"/>
<path d="M356.905 246.338C356.345 245.458 354.658 243.173 352.411 243.476C349.964 243.805 355.114 245.419 356.691 246.345C356.341 246.35 356.039 246.322 355.819 246.243C354.764 245.868 352.959 246.589 352.382 246.842H362.418C362.348 246.601 362.168 246.209 361.7 245.924C361.535 245.823 361.205 245.809 360.777 245.841C361.374 245.139 361.788 242.891 360.127 243.469C358.914 243.892 358.916 245.265 359.036 246.078C358.777 246.118 358.516 246.159 358.257 246.196C357.758 243.65 355.99 236.187 352.408 235.988C348.777 235.787 355.488 243.727 357.722 246.267C357.435 246.301 357.159 246.327 356.905 246.338Z" fill="#82B378"/>
</g>
<mask id="mask4_106_2" style="mask-type:alpha" maskUnits="userSpaceOnUse" x="450" y="49" width="234" height="234">
<path d="M566.819 49.9984L450.612 166.193L566.819 282.388L683.026 166.193L566.819 49.9984Z" fill="#C4C4C4"/>
</mask>
<g mask="url(#mask4_106_2)">
<path d="M330.501 -46.7473C406.37 -82.8009 483.477 -50.9244 535.773 18.499C588.069 87.9232 697.82 -29.4194 756.029 39.8922C795.753 87.194 777.558 208.809 723.089 261.482C649.057 333.08 423.908 296.751 375.206 284.568C319.096 270.529 278.076 227.939 261.41 176.248C221.25 51.6962 296.975 -30.8126 330.501 -46.7473Z" fill="#E7F3FE"/>
<path d="M581.869 207.304C561.216 206.295 490.959 208.005 469.592 208.672C448.225 209.338 423.422 207.792 410.538 205.518C397.654 203.244 323.182 205.712 326.562 211.827C329.941 217.941 359.742 214.562 393.537 217.02C427.333 219.477 503.34 216.713 520.484 217.02C537.629 217.326 553.349 216.405 575.444 215.177C597.538 213.949 593.841 207.889 581.869 207.304Z" fill="#CCE2FF"/>
<path d="M521.393 160.037H445.728C445.272 160.037 444.904 159.669 444.904 159.213V157.98C444.904 157.525 445.272 157.156 445.728 157.156H521.393C521.849 157.156 522.217 157.525 522.217 157.98V159.213C522.217 159.669 521.849 160.037 521.393 160.037Z" fill="#2E5B9A"/>
<path d="M540.881 118.55C541.905 122.165 539.402 125.89 536.643 126.672C533.884 127.454 531.916 124.998 530.891 121.385C529.867 117.77 531.27 114.206 534.029 113.424C536.788 112.64 539.855 114.937 540.881 118.55Z" fill="#F09959"/>
<path d="M525.415 188.583C525.415 188.583 532.485 199.562 533.439 200.039C534.394 200.517 536.78 200.636 535.885 202.426C534.99 204.216 534.632 211.257 533.797 211.615C532.962 211.973 525.801 212.809 526.874 211.615C527.949 210.421 528.61 211.018 529.152 208.871C529.693 206.723 530.455 202.664 529.44 201.829C528.427 200.995 522.22 193.476 522.22 193.476L525.415 188.583Z" fill="#F09959"/>
<path d="M489.833 193.297C489.833 193.297 481.239 207.459 479.648 208.733C478.056 210.006 472.805 211.916 477.102 212.234C481.399 212.552 483.467 210.802 486.172 210.006C488.877 209.211 492.22 208.733 490.947 206.665C489.674 204.596 490.203 200.08 492.947 197.216C495.691 194.351 489.833 193.297 489.833 193.297Z" fill="#F09959"/>
<path d="M533.685 160.457C533.685 160.457 512.413 159.902 503.979 166.823C499.046 174.301 487.111 196.367 486.184 198.799C486.82 199.436 490.401 200.585 491.992 200.425C496.686 194.828 502.892 189.989 505.359 185.598C508.4 180.187 509.337 177.483 514.27 177.005C519.204 176.527 530.345 174.937 533.685 174.937C537.027 174.937 533.685 160.457 533.685 160.457Z" fill="#6791C9"/>
<path d="M518.833 212.271H519.948L529.124 177.734H526.671L518.833 212.271Z" fill="#2E5B9A"/>
<path d="M545.805 159.001L533.437 161.136C533.437 161.136 517.001 161.287 509.488 162.686C502.653 163.959 501.646 171.725 509.488 182.417C513.943 188.491 517.71 193.336 525.413 198.8C527.372 197.36 528.122 196.817 528.663 193.356C528.106 192.591 526.662 187.809 526.214 186.872C521.954 177.968 516.266 174.729 516.189 173.852C517.144 172.302 541.479 181.939 546.319 176.269C550.939 170.857 545.805 159.001 545.805 159.001Z" fill="#75A1DE"/>
<path d="M546.32 131.003C543.062 130.547 539.745 131.165 536.642 133.411C533.932 136.175 530.863 140.732 531.051 148.249C531.29 157.796 529.574 158.409 531.365 161.034C538.831 164.117 551.602 177.363 548.593 163.162C546.416 152.879 553.369 145.214 547.761 133.808C547.304 132.881 546.733 131.98 546.32 131.003Z" fill="#F37168"/>
<path d="M531.048 151.842C530.904 156.818 530.201 158.285 530.738 159.845C533.782 160.155 539.35 161.374 540.741 163.321C542.333 165.548 543.923 165.866 543.181 164.222C542.438 162.578 540.476 160.245 543.5 152.236C546.524 144.226 547.955 138.816 544.985 133.247L531.048 151.842Z" fill="#D54A41"/>
<path d="M546.32 131.003C544.314 126.255 543.821 120.921 543.821 120.921L538.57 122.472C538.57 122.472 541.554 129.155 538.689 131.542C538.08 132.049 537.375 132.665 536.641 133.412C539.746 131.165 543.063 130.546 546.32 131.003Z" fill="#F09959"/>
<path d="M543.979 122.186C543.668 121.908 543.279 121.563 542.87 121.203L538.587 122.468C538.583 122.475 538.581 122.483 538.577 122.49C538.68 122.727 539.772 125.272 539.915 127.721C541.191 126.947 542.59 125.685 544.187 123.48C544.101 122.99 544.032 122.554 543.979 122.186Z" fill="#E38540"/>
<path d="M542.628 132.497C537.22 134.389 537.82 140.087 532.842 148.489C530.266 152.837 527.872 152.772 527.872 152.772C527.872 152.772 521.83 152.821 514.523 151.927C509.946 151.368 509.656 152.729 512.838 153.867C519.257 156.162 525.918 158.631 531.289 158.035C536.659 157.438 545.845 143.736 546.318 140.17C546.975 135.237 545.353 131.545 542.628 132.497Z" fill="#F09959"/>
<path d="M539.84 180.303C539.503 180.303 539.16 180.3 538.806 180.29C534.398 180.182 531.398 179.572 528.987 179.082C526.172 178.511 524.621 178.195 522.816 179.058C522.123 179.388 521.294 179.095 520.962 178.402C520.632 177.709 520.924 176.88 521.618 176.548C524.263 175.284 526.477 175.734 529.54 176.358C531.844 176.826 534.712 177.408 538.875 177.512C543.534 177.627 546.375 176.937 547.815 175.34C549.099 173.917 549.473 171.527 548.997 167.818C548.834 166.549 548.671 165.492 548.526 164.561C548.12 161.933 547.851 160.197 548.184 157.513C548.493 155.021 549.318 151.7 551.23 145.263C551.448 144.527 552.222 144.109 552.958 144.326C553.694 144.545 554.114 145.318 553.896 146.055C550.334 158.05 550.514 159.219 551.274 164.136C551.421 165.084 551.587 166.159 551.755 167.464C552.342 172.038 551.748 175.132 549.88 177.203C547.957 179.333 544.837 180.303 539.84 180.303Z" fill="#2E5B9A"/>
<path d="M490.417 205.233C484.714 208.021 481.646 209.62 479.818 209.467C479.385 209.431 479.028 209.387 478.728 209.34C476.694 210.541 473.449 211.961 477.1 212.233C481.397 212.55 483.466 210.801 486.171 210.005C488.876 209.209 492.218 208.731 490.945 206.663C490.702 206.267 490.525 205.78 490.417 205.233Z" fill="#D54A41"/>
<path d="M534.06 200.272C533.921 204.786 533.3 209.259 530.539 210.104C529.807 210.329 529.14 210.36 528.55 210.281C528.116 210.819 527.586 210.825 526.874 211.614C525.8 212.808 532.961 211.973 533.797 211.614C534.632 211.256 534.991 204.216 535.886 202.425C536.62 200.955 535.141 200.613 534.06 200.272Z" fill="#D54A41"/>
<path d="M512.094 157.552H493.979C493.438 157.552 492.947 157.238 492.718 156.748L485.397 140.995C485.074 140.299 485.376 139.471 486.072 139.147C486.77 138.824 487.596 139.126 487.92 139.822L494.866 154.772H512.094C512.861 154.772 513.484 155.394 513.484 156.162C513.484 156.93 512.862 157.552 512.094 157.552Z" fill="#75A1DE"/>
<path d="M515.885 152.084C512.224 152.032 508.595 149.85 506.79 150.168C504.987 150.486 499.098 154.57 499.841 154.73C500.584 154.888 505.252 152.469 505.411 152.433C505.57 152.396 506.577 154.108 509.072 154.737C511.565 155.366 509.089 152.868 516.817 155.203C521.843 156.72 515.885 152.084 515.885 152.084Z" fill="#F09959"/>
<path d="M545.78 126.67L546.319 131.004C546.319 131.004 541.581 131.286 539.225 132.611C536.868 133.937 533.39 137.769 533.39 137.769L536.232 132.876L536.641 129.747L545.78 126.67Z" fill="#F2E5DE"/>
<path d="M543.764 131.974C540.246 131.315 538.62 134.468 536.338 139.612C534.058 144.758 530.163 151.007 529.389 151.812C528.615 152.617 516.339 151.812 516.339 151.812C516.339 151.812 515.968 155.365 516.339 155.789C516.711 156.214 518.833 156.161 518.833 156.161C518.833 156.161 519.682 156.838 520.478 157.375C521.273 157.911 528.01 158.919 531.14 158.76C534.27 158.602 537.134 158.336 537.558 157.858C537.982 157.381 546.523 144.227 547.054 139.506C547.584 134.785 545.56 132.311 543.764 131.974Z" fill="#F2E5DE"/>
<path d="M533.391 110.334C526.738 110.653 527.781 120.661 527.781 120.661C527.781 120.661 529.509 121.194 533.13 120.597C532.852 119.522 532.971 116.778 532.971 116.778C532.971 116.778 533.392 119.007 533.926 120.359C534.692 120.71 535.557 120.399 537.029 120.043C537.786 123.224 539.921 124.567 541.384 125.027C543 125.535 544.711 126.141 546.62 125.185C548.53 124.23 547.48 114.471 546.465 112.509C544.943 109.563 542.413 106.926 538.038 108.318C535.842 109.017 533.391 110.334 533.391 110.334Z" fill="#303C60"/>
<path d="M543.509 126.291C543.074 126.291 542.603 126.253 542.096 126.177C539.769 125.828 536.645 124.505 536.4 117.078C536.397 116.945 536.501 116.833 536.634 116.828C536.77 116.826 536.879 116.929 536.883 117.062C536.984 120.122 537.591 122.389 538.689 123.795C539.522 124.863 540.627 125.468 542.167 125.698C544.321 126.021 545.749 125.623 546.411 124.515C546.479 124.401 546.628 124.364 546.742 124.432C546.857 124.5 546.894 124.65 546.826 124.764C546.22 125.781 545.106 126.291 543.509 126.291Z" fill="#303C60"/>
<path d="M453.014 212.271H454.801L461.756 159.118H457.823L453.014 212.271Z" fill="#2E5B9A"/>
<path d="M513.673 212.271H511.885L504.931 159.118H508.864L513.673 212.271Z" fill="#2E5B9A"/>
</g>
</g>
</g>
</svg>
