<svg width="232" height="84" viewBox="0 0 232 84" fill="none" xmlns="http://www.w3.org/2000/svg">
<path d="M68.3271 64.2121V69.6213H77.189L77.0164 43.8413C77.448 40.9093 79.6882 37.5465 83.5765 37.2812C89.3397 37.3483 89.7704 39.7689 91.5177 42.9782C93.265 46.1875 100.349 45.2579 99.5739 40.0434C98.7987 34.8288 92.9563 27.959 83.5765 27.959C74.1967 27.959 68.3271 37.7416 68.3271 42.9206V54.4295V64.2121Z" fill="#F16522"/>
<circle cx="68.6723" cy="59.3786" r="5.29411" fill="#F16522"/>
<circle cx="96.0635" cy="24.5063" r="5.29411" fill="#F16522"/>
<path d="M111.027 19.7876V14.3784H102.165L102.337 40.1584C101.906 43.0905 99.6657 46.4533 95.7774 46.7185C90.0142 46.6514 89.5835 44.2309 87.8362 41.0216C86.0889 37.8123 79.0047 38.7418 79.7799 43.9564C80.5552 49.1709 86.3976 56.0408 95.7774 56.0408C105.157 56.0408 111.027 46.2582 111.027 41.0792V29.5702V19.7876Z" fill="#FDBF0F"/>
<circle cx="83.5188" cy="59.3786" r="5.29411" fill="#FDBF0F"/>
<circle cx="110.565" cy="24.5063" r="5.29411" fill="#FDBF0F"/>
<path d="M137.236 68.6045C136.797 68.9293 136.252 69.1776 135.603 69.3496C134.972 69.5024 134.313 69.5789 133.625 69.5789C131.772 69.5789 130.349 69.1108 129.355 68.1746C128.362 67.2385 127.865 65.863 127.865 64.048V50.5218H132.336V63.9907C132.336 64.6402 132.498 65.1465 132.823 65.5095C133.148 65.8534 133.616 66.0253 134.227 66.0253C134.915 66.0253 135.526 65.8343 136.061 65.4522L137.236 68.6045Z" fill="black"/>
<path d="M154.948 53.932V69.3496H150.678V67.5728C149.57 68.9102 147.965 69.5789 145.863 69.5789C144.411 69.5789 143.093 69.2541 141.909 68.6045C140.743 67.9549 139.826 67.0284 139.158 65.8247C138.489 64.6211 138.155 63.2265 138.155 61.6408C138.155 60.0551 138.489 58.6604 139.158 57.4568C139.826 56.2532 140.743 55.3266 141.909 54.6771C143.093 54.0275 144.411 53.7027 145.863 53.7027C147.831 53.7027 149.369 54.3236 150.477 55.5654V53.932H154.948ZM146.637 65.9107C147.764 65.9107 148.7 65.5286 149.446 64.7644C150.191 63.9811 150.563 62.9399 150.563 61.6408C150.563 60.3417 150.191 59.31 149.446 58.5458C148.7 57.7625 147.764 57.3709 146.637 57.3709C145.491 57.3709 144.545 57.7625 143.8 58.5458C143.055 59.31 142.682 60.3417 142.682 61.6408C142.682 62.9399 143.055 63.9811 143.8 64.7644C144.545 65.5286 145.491 65.9107 146.637 65.9107Z" fill="black"/>
<path d="M167.077 53.7027C168.987 53.7027 170.525 54.2759 171.69 55.4222C172.875 56.5684 173.467 58.2688 173.467 60.5232V69.3496H168.997V61.2109C168.997 59.9882 168.729 59.0807 168.194 58.4885C167.659 57.8771 166.885 57.5715 165.873 57.5715C164.746 57.5715 163.848 57.9249 163.179 58.6318C162.51 59.3195 162.176 60.3512 162.176 61.7268V69.3496H157.706V53.932H161.976V55.7374C162.568 55.0878 163.303 54.5911 164.182 54.2472C165.061 53.8842 166.026 53.7027 167.077 53.7027Z" fill="black"/>
<path d="M192.188 48.0859V69.3496H187.918V67.5728C186.81 68.9102 185.205 69.5789 183.103 69.5789C181.651 69.5789 180.333 69.2541 179.149 68.6045C177.983 67.9549 177.066 67.0284 176.398 65.8247C175.729 64.6211 175.395 63.2265 175.395 61.6408C175.395 60.0551 175.729 58.6604 176.398 57.4568C177.066 56.2532 177.983 55.3266 179.149 54.6771C180.333 54.0275 181.651 53.7027 183.103 53.7027C185.071 53.7027 186.609 54.3236 187.717 55.5654V48.0859H192.188ZM183.877 65.9107C185.004 65.9107 185.941 65.5286 186.686 64.7644C187.431 63.9811 187.803 62.9399 187.803 61.6408C187.803 60.3417 187.431 59.31 186.686 58.5458C185.941 57.7625 185.004 57.3709 183.877 57.3709C182.731 57.3709 181.785 57.7625 181.04 58.5458C180.295 59.31 179.922 60.3417 179.922 61.6408C179.922 62.9399 180.295 63.9811 181.04 64.7644C181.785 65.5286 182.731 65.9107 183.877 65.9107Z" fill="black"/>
<path d="M211.397 53.932V69.3496H207.127V67.5728C206.019 68.9102 204.414 69.5789 202.312 69.5789C200.86 69.5789 199.542 69.2541 198.358 68.6045C197.192 67.9549 196.275 67.0284 195.607 65.8247C194.938 64.6211 194.604 63.2265 194.604 61.6408C194.604 60.0551 194.938 58.6604 195.607 57.4568C196.275 56.2532 197.192 55.3266 198.358 54.6771C199.542 54.0275 200.86 53.7027 202.312 53.7027C204.28 53.7027 205.818 54.3236 206.926 55.5654V53.932H211.397ZM203.086 65.9107C204.213 65.9107 205.15 65.5286 205.895 64.7644C206.64 63.9811 207.012 62.9399 207.012 61.6408C207.012 60.3417 206.64 59.31 205.895 58.5458C205.15 57.7625 204.213 57.3709 203.086 57.3709C201.94 57.3709 200.994 57.7625 200.249 58.5458C199.504 59.31 199.132 60.3417 199.132 61.6408C199.132 62.9399 199.504 63.9811 200.249 64.7644C200.994 65.5286 201.94 65.9107 203.086 65.9107Z" fill="black"/>
<path d="M130.015 55.4813C130.015 56.7208 129.01 57.7256 127.771 57.7256C126.531 57.7256 125.526 56.7208 125.526 55.4813C125.526 54.2419 126.531 53.2371 127.771 53.2371C129.01 53.2371 130.015 54.2419 130.015 55.4813Z" fill="black"/>
<path d="M137.265 55.4813C137.265 56.7208 136.261 57.7256 135.021 57.7256C133.782 57.7256 132.777 56.7208 132.777 55.4813C132.777 54.2419 133.782 53.2371 135.021 53.2371C136.261 53.2371 137.265 54.2419 137.265 55.4813Z" fill="black"/>
<path d="M168.512 48.173H170.814C170.814 52.2012 168.225 52.2556 167.304 52.2013C166.383 52.147 166.028 52.1949 165.059 51.2804C164.024 50.3022 162.525 49.9085 162.24 52.0861C161.549 52.0861 160.801 52.0861 159.938 52.0861C160.226 45.4685 165.405 48.1731 166.153 49.0363C166.901 49.8995 168.167 50.0146 168.512 48.173Z" fill="black"/>
<path d="M134.439 32.2892C135.241 32.2892 135.948 32.1746 136.559 31.9453C137.19 31.697 137.773 31.3149 138.308 30.799L140.686 33.3782C139.234 35.0403 137.113 35.8714 134.324 35.8714C132.586 35.8714 131.048 35.537 129.71 34.8684C128.373 34.1806 127.341 33.2349 126.615 32.0313C125.889 30.8277 125.526 29.4617 125.526 27.9333C125.526 26.424 125.88 25.0676 126.587 23.864C127.313 22.6413 128.297 21.6956 129.538 21.0269C130.799 20.3391 132.213 19.9952 133.78 19.9952C135.251 19.9952 136.588 20.3105 137.792 20.9409C138.995 21.5523 139.951 22.4502 140.657 23.6347C141.383 24.8001 141.746 26.1852 141.746 27.79L130.341 29.9966C130.666 30.7608 131.172 31.334 131.86 31.7161C132.567 32.0982 133.426 32.2892 134.439 32.2892ZM133.78 23.3768C132.652 23.3768 131.735 23.7398 131.029 24.4658C130.322 25.1918 129.949 26.1948 129.911 27.4748L137.419 26.0133C137.209 25.2109 136.779 24.5709 136.13 24.0932C135.48 23.6156 134.697 23.3768 133.78 23.3768Z" fill="black"/>
<path d="M152.971 19.9952C154.882 19.9952 156.42 20.5684 157.585 21.7147C158.77 22.861 159.362 24.5613 159.362 26.8157V35.6421H154.891V27.5035C154.891 26.2807 154.624 25.3733 154.089 24.781C153.554 24.1697 152.78 23.864 151.768 23.864C150.641 23.864 149.743 24.2174 149.074 24.9243C148.405 25.6121 148.071 26.6437 148.071 28.0193V35.6421H143.6V20.2245H147.87V22.0299C148.463 21.3803 149.198 20.8836 150.077 20.5397C150.956 20.1767 151.921 19.9952 152.971 19.9952Z" fill="black"/>
<path d="M171.031 19.9952C172.464 19.9952 173.763 20.3296 174.929 20.9982C176.113 21.6478 177.04 22.5744 177.708 23.778C178.377 24.9625 178.711 26.3476 178.711 27.9333C178.711 29.519 178.377 30.9137 177.708 32.1173C177.04 33.3018 176.113 34.2284 174.929 34.897C173.763 35.5466 172.464 35.8714 171.031 35.8714C168.91 35.8714 167.296 35.2027 166.188 33.8654V35.6421H161.918V14.3784H166.389V21.858C167.516 20.6162 169.063 19.9952 171.031 19.9952ZM170.257 32.2032C171.404 32.2032 172.34 31.8211 173.066 31.057C173.811 30.2737 174.183 29.2324 174.183 27.9333C174.183 26.6342 173.811 25.6025 173.066 24.8383C172.34 24.055 171.404 23.6634 170.257 23.6634C169.111 23.6634 168.165 24.055 167.42 24.8383C166.694 25.6025 166.331 26.6342 166.331 27.9333C166.331 29.2324 166.694 30.2737 167.42 31.057C168.165 31.8211 169.111 32.2032 170.257 32.2032Z" fill="black"/>
<path d="M189.585 32.2892C190.388 32.2892 191.094 32.1746 191.706 31.9453C192.336 31.697 192.919 31.3149 193.454 30.799L195.832 33.3782C194.38 35.0403 192.26 35.8714 189.471 35.8714C187.732 35.8714 186.194 35.537 184.857 34.8684C183.519 34.1806 182.488 33.2349 181.762 32.0313C181.036 30.8277 180.673 29.4617 180.673 27.9333C180.673 26.424 181.026 25.0676 181.733 23.864C182.459 22.6413 183.443 21.6956 184.685 21.0269C185.946 20.3391 187.359 19.9952 188.926 19.9952C190.397 19.9952 191.734 20.3105 192.938 20.9409C194.142 21.5523 195.097 22.4502 195.804 23.6347C196.53 24.8001 196.893 26.1852 196.893 27.79L185.487 29.9966C185.812 30.7608 186.318 31.334 187.006 31.7161C187.713 32.0982 188.573 32.2892 189.585 32.2892ZM188.926 23.3768C187.799 23.3768 186.882 23.7398 186.175 24.4658C185.468 25.1918 185.096 26.1948 185.057 27.4748L192.566 26.0133C192.355 25.2109 191.926 24.5709 191.276 24.0932C190.626 23.6156 189.843 23.3768 188.926 23.3768Z" fill="black"/>
<path d="M205.712 29.5954L203.563 31.7161V35.6421H199.092V14.3784H203.563V26.4145L210.097 20.2245H215.427L209.008 26.7584L216 35.6421H210.584L205.712 29.5954Z" fill="black"/>
</svg>