<svg width="540" height="282" viewBox="0 0 540 282" fill="none" xmlns="http://www.w3.org/2000/svg">
<mask id="mask0_705_2184" style="mask-type:alpha" maskUnits="userSpaceOnUse" x="0" y="0" width="540" height="282">
<rect width="540" height="282" fill="#C4C4C4"/>
</mask>
<g mask="url(#mask0_705_2184)">
<path d="M259.417 283.234C259.417 283.234 220.974 241.962 252.913 197.28C281.25 157.64 314.29 160.348 338.529 176.427C348.853 183.281 378.617 177.273 403.956 136.931C438.507 81.9133 558.262 115.279 536.429 199.928C525.863 240.886 568.586 242.373 546.814 283.319L259.417 283.234Z" fill="#EBF3FA"/>
<path d="M456.351 282.836H387.745C385.593 282.836 383.828 281.071 383.828 278.919V141.731C383.828 139.579 385.593 137.814 387.745 137.814H456.351C458.503 137.814 460.268 139.579 460.268 141.731V278.931C460.268 281.083 458.503 282.836 456.351 282.836Z" fill="#78ACEA"/>
<path d="M464.305 141.731V278.931C464.305 281.083 462.54 282.836 460.388 282.836H391.782C389.63 282.836 387.877 281.071 387.877 278.931V141.731C387.877 139.579 389.63 137.814 391.782 137.814H460.388C462.54 137.814 464.305 139.579 464.305 141.731Z" fill="#AFCDFB"/>
<path opacity="0.4" d="M437.286 143.302H417.411C416.988 143.302 416.637 142.952 416.637 142.529C416.637 142.105 416.988 141.755 417.411 141.755H437.286C437.709 141.755 438.059 142.105 438.059 142.529C438.059 142.952 437.721 143.302 437.286 143.302Z" fill="#5E92DD"/>
<path opacity="0.4" d="M413.893 143.302C413.47 143.302 413.119 142.952 413.119 142.529C413.119 142.105 413.47 141.755 413.893 141.755C414.316 141.755 414.667 142.105 414.667 142.529C414.667 142.952 414.316 143.302 413.893 143.302Z" fill="#5E92DD"/>
<path d="M432.027 274.832C432.027 276.198 431.471 277.444 430.576 278.338C429.669 279.245 428.424 279.813 427.034 279.813C424.278 279.813 422.053 277.577 422.053 274.832C422.053 273.067 422.972 271.508 424.362 270.625C425.136 270.13 426.055 269.852 427.034 269.852C429.79 269.84 432.027 272.076 432.027 274.832Z" fill="#95C0F4"/>
<path d="M460.218 146.748H392.446V267.386H460.218V146.748Z" fill="#95C0F4"/>
<path d="M430.576 278.339C429.669 279.246 428.424 279.814 427.034 279.814C424.278 279.814 422.053 277.577 422.053 274.833C422.053 273.068 422.972 271.508 424.362 270.626C424.858 272.742 426.297 276.296 430.576 278.339Z" fill="#8CBAF1"/>
<path opacity="0.9" d="M459.251 161.17H459.094H427.711H396.17C395.638 161.17 395.191 161.738 395.191 162.427V202.757C395.191 203.446 395.626 204.014 396.17 204.014H427.711H459.094H459.251C459.783 204.014 460.231 203.446 460.231 202.757V162.439C460.231 161.738 459.783 161.17 459.251 161.17Z" fill="#78ACEA"/>
<path opacity="0.9" d="M435.714 210.167H435.593H411.124H386.535C386.112 210.167 385.773 210.735 385.773 211.424V251.754C385.773 252.443 386.112 253.011 386.535 253.011H411.124H435.593H435.714C436.137 253.011 436.475 252.443 436.475 251.754V211.424C436.475 210.735 436.137 210.167 435.714 210.167Z" fill="#78ACEA"/>
<path d="M483.236 158.801V199.13C483.236 199.819 482.668 200.387 481.967 200.387H400.305C399.616 200.387 399.047 199.819 399.047 199.13V158.801C399.047 158.099 399.616 157.531 400.305 157.531H481.967C482.668 157.543 483.236 158.112 483.236 158.801Z" fill="#FCECDB"/>
<path d="M483.224 158.8V199.13C483.224 199.819 482.56 200.387 481.762 200.387H441.13V157.543H481.762C482.572 157.543 483.224 158.111 483.224 158.8Z" fill="#F99746"/>
<path d="M461.077 173.186H446.703C446.195 173.186 445.784 172.775 445.784 172.267C445.784 171.76 446.195 171.349 446.703 171.349H461.077C461.585 171.349 461.996 171.76 461.996 172.267C461.996 172.775 461.585 173.186 461.077 173.186Z" fill="#FCECDB"/>
<path d="M457.523 175.943H446.594C446.147 175.943 445.784 175.58 445.784 175.133V174.915C445.784 174.468 446.147 174.105 446.594 174.105H457.523C457.97 174.105 458.333 174.468 458.333 174.915V175.133C458.333 175.58 457.97 175.943 457.523 175.943Z" fill="#FCECDB"/>
<path d="M446.896 162.935C447.235 162.475 447.694 162.258 448.25 162.258C448.806 162.258 449.253 162.488 449.592 162.935C449.93 163.382 450.1 163.938 450.1 164.615C450.1 165.292 449.93 165.836 449.592 166.296C449.253 166.743 448.794 166.973 448.25 166.973C447.694 166.973 447.247 166.743 446.896 166.296C446.558 165.848 446.388 165.292 446.388 164.615C446.376 163.938 446.545 163.382 446.896 162.935ZM449.241 163.249C448.987 162.886 448.649 162.705 448.25 162.705C447.851 162.705 447.513 162.886 447.259 163.249C447.005 163.612 446.872 164.071 446.872 164.603C446.872 165.147 447.005 165.607 447.259 165.969C447.513 166.332 447.851 166.513 448.262 166.513C448.673 166.513 449 166.332 449.253 165.969C449.507 165.607 449.64 165.147 449.64 164.603C449.628 164.071 449.495 163.612 449.241 163.249Z" fill="#FCECDB"/>
<path d="M453.811 162.814C454.113 163.189 454.271 163.709 454.271 164.373C454.295 165.788 453.533 166.961 452.3 166.948C451.925 166.948 451.611 166.852 451.345 166.67V166.211C451.635 166.404 451.937 166.501 452.264 166.501C453.34 166.501 453.787 165.522 453.811 164.555C453.569 164.966 453.098 165.232 452.481 165.232C452.07 165.232 451.72 165.099 451.442 164.833C451.164 164.555 451.019 164.204 451.019 163.793C451.019 163.346 451.164 162.983 451.466 162.693C451.768 162.403 452.131 162.258 452.566 162.258C453.074 162.258 453.497 162.439 453.811 162.814ZM451.792 163.019C451.587 163.225 451.478 163.479 451.478 163.793C451.478 164.107 451.587 164.349 451.792 164.543C452.01 164.736 452.264 164.821 452.59 164.821C452.856 164.821 453.098 164.736 453.328 164.567C453.557 164.398 453.702 164.192 453.787 163.938C453.714 163.165 453.279 162.705 452.578 162.705C452.264 162.705 451.998 162.802 451.792 163.019Z" fill="#FCECDB"/>
<path d="M455.226 163.926C455.359 163.793 455.576 163.793 455.709 163.926C455.842 164.059 455.842 164.276 455.709 164.409C455.576 164.542 455.359 164.542 455.226 164.409C455.093 164.276 455.093 164.047 455.226 163.926ZM455.226 166.332C455.359 166.199 455.576 166.199 455.709 166.332C455.842 166.465 455.842 166.682 455.709 166.815C455.576 166.948 455.359 166.948 455.226 166.815C455.093 166.682 455.093 166.465 455.226 166.332Z" fill="#FCECDB"/>
<path d="M457.474 166.876V162.85L456.459 163.431V162.971L457.535 162.331H457.958V166.876H457.474Z" fill="#FCECDB"/>
<path d="M459.602 162.935C459.94 162.475 460.4 162.258 460.956 162.258C461.512 162.258 461.959 162.488 462.298 162.935C462.636 163.382 462.806 163.938 462.806 164.615C462.806 165.292 462.636 165.836 462.298 166.296C461.959 166.743 461.5 166.973 460.956 166.973C460.412 166.973 459.953 166.743 459.602 166.296C459.263 165.848 459.094 165.292 459.094 164.615C459.094 163.938 459.263 163.382 459.602 162.935ZM461.947 163.249C461.693 162.886 461.355 162.705 460.956 162.705C460.557 162.705 460.219 162.886 459.965 163.249C459.711 163.612 459.578 164.071 459.578 164.603C459.578 165.147 459.711 165.607 459.965 165.969C460.219 166.332 460.557 166.513 460.968 166.513C461.379 166.513 461.706 166.332 461.959 165.969C462.213 165.607 462.346 165.147 462.346 164.603C462.334 164.071 462.201 163.612 461.947 163.249Z" fill="#FCECDB"/>
<path d="M465.61 166.876V162.331H467.52C468.427 162.331 468.971 162.838 468.971 163.588C468.971 164.362 468.427 164.869 467.52 164.869H466.093V166.876H465.61ZM466.093 164.434H467.484C468.124 164.434 468.499 164.132 468.499 163.6C468.499 163.056 468.124 162.766 467.484 162.766H466.093V164.434Z" fill="#FCECDB"/>
<path d="M469.926 166.876V162.331H470.398L472.042 164.531L473.686 162.331H474.157V166.876H473.686V163.056L472.199 165.039H471.909L470.41 163.056V166.876H469.926Z" fill="#FCECDB"/>
<path d="M423.274 200.388H400.292C399.603 200.388 399.035 199.819 399.035 199.13V171.724C405.297 179.123 417.568 193.63 423.274 200.388Z" fill="#F9E5D1"/>
<path d="M419.926 162.85C415.332 162.85 411.596 166.574 411.596 171.18C411.596 175.773 419.926 186.001 419.926 186.001C419.926 186.001 428.255 175.773 428.255 171.18C428.255 166.574 424.532 162.85 419.926 162.85ZM419.926 174.976C417.774 174.976 416.033 173.235 416.033 171.083C416.033 168.931 417.774 167.19 419.926 167.19C422.078 167.19 423.818 168.931 423.818 171.083C423.818 173.235 422.078 174.976 419.926 174.976Z" fill="#F99746"/>
<path d="M419.236 192.904H404.862C404.354 192.904 403.943 192.493 403.943 191.985C403.943 191.477 404.354 191.066 404.862 191.066H419.236C419.743 191.066 420.154 191.477 420.154 191.985C420.142 192.493 419.731 192.904 419.236 192.904Z" fill="#EFCBAB"/>
<path d="M415.682 195.648H404.741C404.294 195.648 403.931 195.285 403.931 194.838V194.621C403.931 194.173 404.294 193.811 404.741 193.811H415.67C416.117 193.811 416.48 194.173 416.48 194.621V194.838C416.48 195.285 416.117 195.648 415.682 195.648Z" fill="#EFCBAB"/>
<path d="M442.907 208.33V248.659C442.907 249.348 442.339 249.916 441.65 249.916H359.988C359.286 249.916 358.718 249.348 358.718 248.659V208.33C358.718 207.64 359.286 207.072 359.988 207.072H441.65C442.339 207.072 442.907 207.64 442.907 208.33Z" fill="#FCECDB"/>
<path d="M442.908 208.33V248.659C442.908 249.348 442.339 249.916 441.65 249.916H405.322V207.072H441.65C442.339 207.072 442.908 207.64 442.908 208.33Z" fill="#F99746"/>
<path d="M423.83 237.235C423.105 237.235 422.44 236.848 422.077 236.232L416.71 227.056C416.141 226.089 416.468 224.832 417.435 224.263C418.402 223.695 419.659 224.022 420.228 224.989L423.673 230.876L430.153 217.53C430.648 216.514 431.869 216.091 432.873 216.587C433.888 217.083 434.311 218.304 433.816 219.307L425.668 236.075C425.341 236.752 424.664 237.187 423.915 237.223C423.891 237.223 423.866 237.235 423.83 237.235Z" fill="#FCECDB"/>
<path d="M423.843 241.95C416.868 241.95 411.198 236.28 411.198 229.305C411.198 222.329 416.868 216.66 423.843 216.66C430.818 216.66 436.488 222.329 436.488 229.305C436.476 236.28 430.806 241.95 423.843 241.95ZM423.843 218.147C417.69 218.147 412.685 223.152 412.685 229.305C412.685 235.458 417.69 240.463 423.843 240.463C429.996 240.463 435.001 235.458 435.001 229.305C435.001 223.152 429.996 218.147 423.843 218.147Z" fill="#FCECDB"/>
<path d="M382.631 249.916H359.975C359.274 249.916 358.706 249.348 358.706 248.659V217.457L382.631 249.916Z" fill="#F9E5D1"/>
<path d="M369.671 214.06C367.168 214.06 365.137 216.091 365.137 218.594C365.137 221.096 367.168 223.127 369.671 223.127C372.173 223.127 374.204 221.096 374.204 218.594C374.192 216.091 372.173 214.06 369.671 214.06ZM372.802 218.739H369.671C369.586 218.739 369.526 218.678 369.526 218.594V215.221C369.526 215.136 369.586 215.076 369.671 215.076C369.755 215.076 369.816 215.136 369.816 215.221V218.448H372.814C372.898 218.448 372.959 218.509 372.959 218.594C372.947 218.678 372.886 218.739 372.802 218.739Z" fill="#F99746"/>
<path d="M392.967 216.914H378.593C378.085 216.914 377.674 216.503 377.674 215.995C377.674 215.487 378.085 215.076 378.593 215.076H392.967C393.475 215.076 393.886 215.487 393.886 215.995C393.886 216.491 393.475 216.914 392.967 216.914Z" fill="#EFCBAB"/>
<path d="M389.425 219.658H378.497C378.049 219.658 377.687 219.295 377.687 218.848V218.63C377.687 218.183 378.049 217.82 378.497 217.82H389.425C389.872 217.82 390.235 218.183 390.235 218.63V218.848C390.223 219.295 389.86 219.658 389.425 219.658Z" fill="#EFCBAB"/>
<path d="M369.211 231.59C366.963 231.59 365.137 233.415 365.137 235.664C365.137 237.912 369.211 242.917 369.211 242.917C369.211 242.917 373.285 237.912 373.285 235.664C373.297 233.415 371.472 231.59 369.211 231.59ZM369.211 237.538C368.159 237.538 367.301 236.679 367.301 235.628C367.301 234.576 368.159 233.718 369.211 233.718C370.263 233.718 371.121 234.576 371.121 235.628C371.121 236.679 370.275 237.538 369.211 237.538Z" fill="#F99746"/>
<path d="M391.879 234.564H377.505C376.997 234.564 376.586 234.153 376.586 233.645C376.586 233.138 376.997 232.727 377.505 232.727H391.879C392.386 232.727 392.798 233.138 392.798 233.645C392.798 234.153 392.386 234.564 391.879 234.564Z" fill="#EFCBAB"/>
<path d="M388.325 237.308H377.396C376.949 237.308 376.586 236.945 376.586 236.498V236.28C376.586 235.833 376.949 235.47 377.396 235.47H388.325C388.772 235.47 389.135 235.833 389.135 236.28V236.498C389.135 236.945 388.772 237.308 388.325 237.308Z" fill="#EFCBAB"/>
<path d="M281.009 231.348C280.706 223.985 280.066 217.578 279.292 213.117C278.059 205.997 276.947 201.898 276.934 201.862C276.777 201.233 274.432 198.707 269.222 198.779C264.011 198.852 264.507 202.176 264.507 202.176C264.507 202.285 264.519 202.394 264.543 202.467C264.591 202.636 269.379 219.972 269.173 242.361C269.173 242.675 269.137 243.219 269.161 243.582C269.161 243.582 281.226 243.896 281.238 243.582C281.661 241.623 281.456 236.207 281.009 231.348Z" fill="#B7D3F3"/>
<path d="M282.532 242.252C282.532 242.566 282.363 242.808 282.158 242.808C281.952 242.808 281.795 242.554 281.795 242.252H271.446C271.446 242.566 271.277 242.808 271.072 242.808C270.866 242.808 270.709 242.542 270.709 242.228C270.77 235.821 270.407 229.836 269.851 224.554C268.473 211.388 265.934 202.587 265.898 202.467C265.873 202.394 265.861 202.285 265.861 202.176C265.861 202.176 265.366 198.852 270.576 198.779C275.787 198.707 278.132 201.233 278.289 201.862C278.301 201.898 278.93 204.219 279.764 208.378C280.042 209.756 280.344 211.34 280.646 213.117C281.42 217.578 282.061 223.985 282.363 231.348C282.798 236.207 282.955 240.294 282.532 242.252Z" fill="#D2E3FC"/>
<path d="M269.947 242.808H310.507C310.507 242.808 309.564 238.987 286.074 239.556C269.452 239.967 269.947 242.808 269.947 242.808Z" fill="#C5DCF8"/>
<path d="M266.647 282.727C271.35 258.924 270.141 244.32 270.129 244.139C270.117 243.776 270.794 243.437 271.157 243.425C271.519 243.413 273.151 243.316 273.333 243.631C273.575 244.042 274.53 262.043 267.518 282.727H266.647V282.727Z" fill="#B7D3F3"/>
<path d="M304.51 282.727C299.808 258.924 301.017 244.32 301.029 244.139C301.041 243.776 300.364 243.437 300.001 243.425C299.638 243.413 298.006 243.316 297.825 243.631C297.583 244.042 296.628 262.043 303.64 282.727H304.51V282.727Z" fill="#B7D3F3"/>
<path d="M312.018 282.727C307.315 258.924 308.524 244.32 308.536 244.139C308.548 243.776 307.871 243.437 307.508 243.425C307.146 243.413 305.514 243.316 305.332 243.631C305.091 244.042 304.136 262.043 311.147 282.727H312.018V282.727Z" fill="#B7D3F3"/>
<path d="M274.203 282.727C278.905 258.924 277.696 244.32 277.684 244.139C277.672 243.776 278.349 243.437 278.712 243.425C279.075 243.413 280.707 243.316 280.888 243.631C281.13 244.042 282.085 262.043 275.073 282.727H274.203V282.727Z" fill="#B7D3F3"/>
<path d="M310.531 244.029H269.972C269.512 244.029 269.138 243.654 269.138 243.195V242.651C269.138 242.192 269.512 241.817 269.972 241.817H310.531C310.99 241.817 311.365 242.192 311.365 242.651V243.195C311.353 243.654 310.978 244.029 310.531 244.029Z" fill="#B7D3F3"/>
<path d="M309.105 207.411L322.584 204.485L323.382 206.42C323.382 206.42 308.512 215.269 307.11 214.834C305.72 214.411 309.105 207.411 309.105 207.411Z" fill="#FFB27D"/>
<path d="M296.846 268.377C296.507 268.764 296.471 269.199 296.628 269.659C296.628 269.659 296.628 269.659 296.628 269.671C296.942 270.529 297.958 271.484 299.143 272.427C299.3 272.548 299.433 272.657 299.542 272.766C299.578 272.79 299.602 272.814 299.638 272.85C299.662 272.874 299.687 272.899 299.711 272.911C300.811 273.926 300.4 274.168 302.383 276.235C304.643 278.593 306.203 278.629 306.65 278.423C307.025 278.242 306.263 276.985 305.417 275.582C305.381 275.51 305.332 275.449 305.296 275.377C305.187 275.195 305.066 275.002 304.958 274.809C303.966 273.116 304.22 272.318 304.462 269.804C304.655 267.761 307.641 258.379 307.641 258.379L303.301 257.63C303.301 257.63 301.996 265.101 300.557 266.249C299.783 266.866 298.925 266.866 298.188 267.325C298.139 267.362 298.079 267.386 298.03 267.422C297.607 267.7 297.184 267.99 296.846 268.377Z" fill="#FFB27D"/>
<path d="M296.846 268.377C296.507 268.764 296.471 269.199 296.628 269.658C296.628 269.658 296.628 269.658 296.628 269.67C297.003 270.529 298.006 271.472 299.143 272.427C299.288 272.547 299.421 272.668 299.542 272.777C299.578 272.801 299.602 272.826 299.638 272.862C299.662 272.886 299.687 272.91 299.711 272.922C300.811 273.938 300.4 274.18 302.383 276.247C304.643 278.604 306.203 278.64 306.65 278.435C307.025 278.254 306.263 276.996 305.417 275.594C304.982 275.437 302.927 274.603 301.379 272.62C300.013 270.879 299.106 268.643 298.175 267.349C298.127 267.385 298.067 267.41 298.018 267.446C297.607 267.7 297.184 267.99 296.846 268.377Z" fill="#1C468A"/>
<path d="M331.844 265.668C332.11 267.01 334.02 266.781 336.16 266.261C338.3 265.741 337.792 266.358 340.826 266.019C343.861 265.681 344.78 264.556 344.876 264.097C344.961 263.698 343.462 263.553 341.854 263.371C341.649 263.347 341.443 263.323 341.25 263.299C339.436 263.069 338.106 261.897 336.45 260.929C334.891 260.023 332.557 256.299 332.557 256.299L328.387 256.626C328.387 256.626 330.575 259.95 331.421 261.389C331.917 262.235 331.893 263.359 331.832 264.23C331.784 264.713 331.76 265.197 331.844 265.668Z" fill="#FFB27D"/>
<path d="M336.16 266.262C338.3 265.742 337.792 266.359 340.826 266.02C343.861 265.682 344.78 264.557 344.876 264.098C344.961 263.699 343.462 263.554 341.854 263.373L341.842 263.409C341.842 263.409 340.016 264.702 337.49 264.763C335.435 264.811 333.246 264.219 331.82 264.243C331.784 264.714 331.759 265.198 331.856 265.67C332.122 266.999 334.032 266.782 336.16 266.262Z" fill="#1C468A"/>
<path d="M322.583 204.485C322.583 204.485 323.575 202.055 324.663 201.958C325.751 201.861 329.233 201.317 329.474 201.813C329.728 202.309 329.474 204.098 328.725 204.739C327.975 205.379 323.369 206.431 323.369 206.431L322.583 204.485Z" fill="#FFB27D"/>
<path d="M315.887 239.036L306.904 263.19C306.904 263.19 305.526 263.323 304.208 262.949C302.987 262.598 301.597 261.679 301.597 261.679C301.597 261.679 303.822 238.48 307.908 233.657C311.994 228.821 315.887 239.036 315.887 239.036Z" fill="#163560"/>
<path d="M280.38 229.256C280.38 229.256 306.179 220.54 311.921 222.389C317.676 224.239 334.951 258.609 334.951 258.609C334.951 258.609 334.564 259.129 333.5 259.527C332.509 259.902 330.115 259.878 330.115 259.878C330.115 259.878 314.532 246.519 312.671 242.615C310.809 238.722 310.072 235.011 308.222 235.373C306.36 235.748 284.285 244.464 279.268 239.266C274.263 234.068 275.569 227.322 275.569 227.322L280.38 229.256Z" fill="#1C468A"/>
<path d="M295.093 167.758C293.981 167.13 292.639 167.057 291.708 167.106C291.95 166.852 292.421 166.767 292.421 166.767C291.841 166.682 290.548 167.251 290.548 167.251C282.484 164.144 281.215 176.015 281.384 178.772C281.553 181.528 281.577 184.707 277.552 187.174C269.633 192.046 276.319 200.532 276.319 200.532C276.379 200.568 280.006 206.71 280.006 206.71C279.8 204.485 290.088 192.723 295.444 189.205C296.749 187.282 297.209 183.885 297.245 183.619C297.015 186.315 296.556 187.826 296.145 188.673C300.69 184.502 298.043 169.439 295.093 167.758Z" fill="#B5453C"/>
<path d="M295.117 189.386C295.141 189.398 292.53 190.752 290.56 190.22C288.71 189.712 287.501 187.319 287.525 187.307C288.311 187.149 288.541 186.074 288.517 181.443L288.867 181.516L294.827 182.701C294.827 182.701 294.694 184.574 294.682 186.339C294.694 187.826 294.779 189.229 295.117 189.386Z" fill="#FFB27D"/>
<path d="M294.839 182.701C294.839 182.701 294.706 184.575 294.694 186.34C291.357 186.243 289.592 183.209 288.879 181.516L294.839 182.701Z" fill="#ED975D"/>
<path d="M288.263 180.875C288.263 180.875 286.51 178.118 286.099 175.749C285.797 174.069 286.655 167.819 292.941 168.713C292.941 168.713 294.767 168.894 296.483 170.055C297.849 170.974 299.82 172.969 297.62 178.421L297.052 180.258L288.263 180.875Z" fill="#B5453C"/>
<path d="M295.951 184.369C295.951 184.369 288.057 184.502 288.057 179.582C288.057 174.662 287.029 171.373 292.07 171.083C297.112 170.793 298.091 172.667 298.49 174.311C298.889 175.955 298.006 184.212 295.951 184.369Z" fill="#FFB27D"/>
<path d="M295.661 170.962C295.661 170.962 293.497 176.729 290.184 177.587C286.872 178.445 285.433 177.551 285.433 177.551C285.433 177.551 287.972 175.532 288.504 172.002C288.492 172.002 294.029 168.218 295.661 170.962Z" fill="#B5453C"/>
<path d="M295.117 171.434C295.117 171.434 296.725 172.715 297.124 173.972C297.523 175.23 297.692 177.805 298.442 177.708C298.442 177.708 300.074 173.791 298.236 171.567C296.302 169.221 295.117 171.434 295.117 171.434Z" fill="#B5453C"/>
<path d="M277.551 210.627C276.778 207.363 279.425 201.028 282.182 195.782C284.684 191.031 287.295 187.174 287.525 187.307C294.138 191.236 294.742 187.972 294.742 187.972C294.742 187.972 300.751 188.77 302.455 191.695C304.571 195.334 306.844 205.477 309.104 207.399C308.754 208.463 308.911 209.031 309.274 210.349C309.358 210.627 309.443 210.905 309.539 211.159C309.878 212.09 310.313 212.839 310.676 213.492C309.527 214.193 307.303 215.523 305.659 214.568C303.156 213.105 301.21 208.657 300.122 206.892C300.122 206.879 300.11 206.879 300.11 206.867C297.728 220.359 300.968 223.43 299.324 224.844C297.595 226.343 295.117 224.131 289.677 226.488C286.111 228.036 281.154 230.272 277.817 230.671C276.065 230.876 274.759 230.574 274.336 229.389C273.091 225.956 279.038 216.841 277.551 210.627Z" fill="#1C468A"/>
<path d="M294.198 181.395C294.198 181.395 294.343 182.024 295.903 181.927C295.903 181.927 297.208 181.843 297.172 181.166C297.16 181.154 295.891 180.67 294.198 181.395Z" fill="white"/>
<path d="M274.336 229.389C274.759 230.574 276.065 230.876 277.817 230.671C280.126 229.667 290.1 225.799 289.991 223.188C289.822 219.307 288.069 219.186 289.314 214.399C290.306 210.554 281.094 203.41 279.619 201.862C276.85 207.109 276.778 207.351 277.551 210.615C279.038 216.841 273.091 225.956 274.336 229.389Z" fill="#163560"/>
<path d="M273.199 215.414C274.964 212.936 276.814 211.618 278.023 210.953C277.745 210.24 285.458 200.774 285.458 199.311C285.458 197.824 287.513 187.319 287.513 187.319C287.513 187.319 281.081 187.718 278.857 190.825C276.088 194.693 270.298 209.648 273.199 215.414Z" fill="#1C468A"/>
<path d="M278.023 210.954L290.874 214.302L289.665 216.466C289.665 216.466 274.022 216.357 273.199 215.402C272.377 214.459 278.023 210.954 278.023 210.954Z" fill="#FFB27D"/>
<path d="M300.122 206.891C301.222 208.668 303.169 213.105 305.659 214.568C307.291 215.523 309.515 214.193 310.676 213.492C310.313 212.839 309.878 212.089 309.54 211.159C308.621 211.364 307.496 211.642 306.771 211.86C305.369 212.283 300.122 206.891 300.122 206.891Z" fill="#163560"/>
<path d="M290.873 214.314C290.873 214.314 294.911 213.178 295.866 213.444C296.833 213.71 300.122 215.886 299.662 216.478C299.203 217.07 296.302 216.127 294.96 216.297C293.63 216.478 292.59 217.131 291.635 216.998C290.668 216.853 289.665 216.478 289.665 216.478L290.873 214.314Z" fill="#FFB27D"/>
<path d="M290.874 214.314C290.874 214.314 292.845 213.298 293.413 212.718C293.485 212.646 293.606 212.658 293.655 212.742C293.8 212.984 293.945 213.443 293.256 213.891C292.264 214.556 290.874 214.314 290.874 214.314Z" fill="#FFB27D"/>
<path d="M309.527 219.983H290.705C290.705 219.149 291.382 218.484 292.204 218.484H309.527V219.983Z" fill="#ED7D2B"/>
<path d="M309.478 199.48H338.589L331.602 219.983H302.31L309.478 199.48Z" fill="#ED7D2B"/>
<path d="M339.013 199.48L332.037 219.983H302.733L309.902 199.48H339.013Z" fill="#F99746"/>
<path d="M323.321 209.551C323.14 210.337 322.354 210.965 321.58 210.965C320.794 210.965 320.311 210.325 320.492 209.551C320.674 208.765 321.459 208.136 322.233 208.136C323.007 208.124 323.502 208.765 323.321 209.551Z" fill="#F9DDBF"/>
<path d="M339.013 199.48L332.025 219.983H312.634C325.485 215.595 328.906 202.224 329.487 199.48H339.013Z" fill="#ED893E"/>
<path d="M254.498 282.727C254.86 282.727 255.175 282.473 255.247 282.11L258.898 261.389L264.157 231.59L265.632 223.26L261.884 223.151L261.231 227.987L256.674 261.982L253.966 282.134C253.93 282.449 254.183 282.727 254.498 282.727Z" fill="#95C0F4"/>
<path d="M261.244 227.987C263.674 229.063 264.17 231.59 264.17 231.59L265.645 223.26L261.897 223.151L261.244 227.987Z" fill="#78ACEA"/>
<path d="M347.669 282.727C347.306 282.727 346.992 282.473 346.919 282.11L343.268 261.389L338.01 231.59L336.535 223.26L340.282 223.151L340.935 227.987L345.493 261.982L348.201 282.134C348.249 282.449 347.995 282.727 347.669 282.727Z" fill="#95C0F4"/>
<path d="M340.935 227.987C338.505 229.063 338.01 231.59 338.01 231.59L336.535 223.26L340.282 223.151L340.935 227.987Z" fill="#78ACEA"/>
<path d="M252.007 226.525H347.923C349.18 226.525 350.207 225.497 350.207 224.24V222.269C350.207 221.012 349.18 219.984 347.923 219.984H252.007C250.75 219.984 249.722 221.012 249.722 222.269V224.24C249.722 225.497 250.75 226.525 252.007 226.525Z" fill="#78ACEA"/>
<path d="M475.185 175.943C475.185 175.943 473.844 171.627 473.082 171.156C472.32 170.696 469.153 169.125 468.96 169.548C468.766 169.971 470.676 172.026 471.099 172.703C471.522 173.392 471.728 174.069 471.438 173.767C471.148 173.477 469.54 172.485 469.371 172.703C469.201 172.921 470.168 173.767 470.64 174.444C471.099 175.121 471.607 176.257 473.263 176.511C474.907 176.777 475.185 175.943 475.185 175.943Z" fill="#FFB27D"/>
<path d="M524.002 212.319C524.002 212.319 523.603 216.224 523.156 216.961C522.721 217.699 520.835 220.056 520.037 220.515C519.239 220.975 520.52 217.408 520.363 216.707C520.206 216.018 519.71 217.977 519.348 218.025C518.997 218.073 519.082 216.308 519.07 215.656C519.058 215.015 520.786 213.431 521.391 212.053C522.02 210.699 524.002 212.319 524.002 212.319Z" fill="#FFB27D"/>
<path d="M511.768 172.268C511.768 172.268 508.528 188.189 490.66 193.4C485.087 195.02 472.417 176.668 472.417 176.668C472.417 176.668 472.865 174.976 475.657 175.363C475.657 175.363 487.988 183.523 489.536 184.417C490.914 185.203 499.969 174.299 504.103 172.546C508.238 170.793 511.768 172.268 511.768 172.268Z" fill="#233862"/>
<path d="M533.081 272.39C533.081 272.39 535.293 274.409 534.858 275.848C534.423 277.287 532.428 278.242 532.162 279.995C531.896 281.748 530.808 282.703 529.841 282.703C528.874 282.703 525.199 282.703 525.199 282.703C525.199 282.703 524.485 281.469 526.214 281.095C527.943 280.72 528.596 278.665 528.487 276.743C528.378 274.832 528.644 272.27 528.644 272.27L532.319 271.423L533.081 272.39Z" fill="#233862"/>
<path d="M505.905 277.625C505.905 277.625 506.304 282.231 505.324 282.703L492.873 282.678C492.873 282.678 492.873 281.24 494.867 280.926C496.862 280.611 500.38 279.439 500.972 276.827C501.589 274.216 505.905 277.625 505.905 277.625Z" fill="#233862"/>
<path d="M495.398 212.634C495.398 212.634 496.051 220.698 496.825 230.393C497.877 243.558 499.134 259.734 499.255 262.804C499.473 268.123 500.331 276.634 500.331 276.634C500.331 276.634 502.386 278.653 506.496 277.807C506.496 277.807 510.159 265.657 511.199 252.794C511.211 252.589 511.235 252.371 511.247 252.154C512.215 239.061 513.738 211.51 513.738 211.51L495.398 212.634Z" fill="#F99746"/>
<path d="M495.398 212.634C495.398 212.634 496.051 220.698 496.825 230.393L511.211 252.794C511.223 252.589 511.247 252.371 511.259 252.154C512.227 239.061 513.75 211.51 513.75 211.51L495.398 212.634Z" fill="#ED7D2B"/>
<path d="M498.397 213.589C498.397 213.589 510.232 242.796 518.006 256.517C525.791 270.239 528.221 274.071 528.221 274.071C528.221 274.071 532.682 272.318 533.081 271.121C533.081 271.121 530.107 244.622 524.896 238.166C521.947 234.515 518.489 223.562 518.332 219.73C518.175 215.898 517.28 208.318 517.28 208.318L498.397 213.589Z" fill="#F99746"/>
<path d="M513.968 168.581C513.968 168.581 505.965 172.449 501.347 171.011C501.347 171.011 502.484 169.572 504.466 168.508C504.309 167.577 504.188 166.779 504.116 166.09C503.922 164.519 503.922 163.624 503.922 163.624L507.005 161.194L509.93 158.873C509.701 165.413 513.968 168.581 513.968 168.581Z" fill="#FFB27D"/>
<path d="M518.187 209.816C518.199 210.312 517.16 210.868 516.7 211.074C513.279 212.573 510.075 213.625 506.461 213.975C502.181 214.41 497.128 213.455 495.387 213.492C495.206 213.492 495.049 213.419 494.904 213.298C494.783 213.214 494.686 208.051 494.783 201.572C494.783 201.306 494.783 201.052 494.795 200.786V200.701C494.831 198.163 494.916 195.515 495.049 192.855C495.302 187.016 495.762 181.383 496.536 178.276C497.479 174.601 499.606 172.171 501.54 170.406L503.136 169.003C504.732 169.318 506.425 169.233 508.105 168.411C509.955 167.516 511.937 166.561 512.264 166.803C514.681 168.568 516.313 172.533 517.184 177.611C517.184 177.635 517.196 177.659 517.196 177.683C517.68 180.585 517.933 183.825 517.909 187.222C517.909 188.479 517.873 189.773 517.8 191.054C517.45 196.833 517.68 201.983 517.921 205.549C517.97 206.25 518.018 206.891 518.054 207.471C518.115 208.475 518.163 209.26 518.187 209.816Z" fill="#2A4E96"/>
<path d="M517.91 205.537C504.636 190.22 512.868 179.074 512.868 179.074L517.184 177.672C517.668 180.573 517.922 183.813 517.897 187.21C517.897 188.468 517.861 189.761 517.789 191.043C517.438 196.821 517.68 201.971 517.91 205.537Z" fill="#233862"/>
<path d="M509.991 161.376C509.991 161.376 507.972 165.063 504.116 166.09C503.922 164.519 503.922 163.624 503.922 163.624L507.005 161.194L509.991 161.376Z" fill="#ED985F"/>
<path d="M502.508 163.527C502.508 163.527 510.148 164.773 510.862 160.082C511.575 155.391 513.05 152.381 508.202 151.39C503.354 150.399 502.133 152.043 501.504 153.554C500.888 155.065 500.537 163.08 502.508 163.527Z" fill="#FFB27D"/>
<path d="M513.641 150.822C513.714 150.737 513.871 150.677 514.222 150.665C514.222 150.665 513.932 150.483 513.557 150.483C513.484 149.988 513.218 149.117 512.372 148.9C512.372 148.9 512.831 149.141 512.892 149.673C511.901 148.658 509.797 147.92 503.934 148.38C496.221 148.984 498.76 153.929 499.763 154.521C500.766 155.114 503.281 153.494 505.131 153.639C506.992 153.784 507.343 156.48 507.972 156.842C508.6 157.217 508.358 156.564 509.205 156.177C510.063 155.79 510.136 157.205 509.894 158.124C509.652 159.042 510.825 160.263 510.825 160.263C510.825 160.263 510.825 160.263 512.009 158.982C513.194 157.701 514.318 152.297 513.774 151.148C513.738 151.027 513.69 150.931 513.641 150.822Z" fill="#2C3A64"/>
<path d="M512.252 166.767C512.252 166.767 517.087 169.052 519.396 172.57C522.987 178.022 527.158 197.909 527.23 199.758C527.303 201.608 524.184 214.604 524.184 214.604C524.184 214.604 521.016 214.398 520.206 212.803C520.206 212.803 520.835 199.444 520.436 198.586C520.037 197.727 507.259 180.67 508.685 177.031C510.148 173.38 512.252 166.767 512.252 166.767Z" fill="#2A4E96"/>
<path d="M472.175 196.664H453.11C451.454 196.664 450.1 195.31 450.1 193.653V192.807C450.1 191.151 451.454 189.797 453.11 189.797H472.175C473.831 189.797 475.185 191.151 475.185 192.807V193.653C475.185 195.31 473.831 196.664 472.175 196.664Z" fill="#FCECDB"/>
<path d="M462.6 194.73C462.467 194.73 462.346 194.657 462.273 194.536L461.27 192.82C461.161 192.638 461.222 192.409 461.403 192.3C461.584 192.191 461.814 192.251 461.923 192.433L462.564 193.533L463.772 191.042C463.869 190.849 464.087 190.776 464.28 190.861C464.474 190.958 464.546 191.175 464.462 191.369L462.938 194.5C462.878 194.621 462.757 194.705 462.612 194.718C462.612 194.73 462.612 194.73 462.6 194.73Z" fill="#F99746"/>
<path d="M462.601 195.612C461.295 195.612 460.243 194.548 460.243 193.254C460.243 191.949 461.307 190.897 462.601 190.897C463.894 190.897 464.958 191.961 464.958 193.254C464.958 194.548 463.906 195.612 462.601 195.612ZM462.601 191.163C461.452 191.163 460.521 192.094 460.521 193.242C460.521 194.391 461.452 195.322 462.601 195.322C463.749 195.322 464.68 194.391 464.68 193.242C464.692 192.094 463.749 191.163 462.601 191.163Z" fill="#F99746"/>
<path d="M355.068 171.941H334.697C332.026 171.941 329.837 174.129 329.837 176.801V184.502C329.837 185.723 330.297 186.847 331.046 187.705L329.837 193.242L336.813 189.374H355.068C357.739 189.374 359.927 187.185 359.927 184.514V176.813C359.927 174.141 357.739 171.941 355.068 171.941Z" fill="#D2E3FC"/>
<path d="M355.442 177.817H334.335C333.899 177.817 333.549 177.467 333.549 177.031C333.549 176.596 333.899 176.246 334.335 176.246H355.454C355.89 176.246 356.24 176.596 356.24 177.031C356.24 177.467 355.878 177.817 355.442 177.817Z" fill="#B7D3F3"/>
<path d="M355.442 181.274H334.335C333.899 181.274 333.549 180.924 333.549 180.488C333.549 180.053 333.899 179.703 334.335 179.703H355.454C355.89 179.703 356.24 180.053 356.24 180.488C356.24 180.924 355.878 181.274 355.442 181.274Z" fill="#B7D3F3"/>
<path d="M355.442 184.598H334.335C333.899 184.598 333.549 184.248 333.549 183.813C333.549 183.377 333.899 183.027 334.335 183.027H355.454C355.89 183.027 356.24 183.377 356.24 183.813C356.24 184.248 355.878 184.598 355.442 184.598Z" fill="#B7D3F3"/>
</g>
</svg>
